<?xml version="1.0" standalone="no"?>
<!DOCTYPE svg PUBLIC "-//W3C//DTD SVG 20010904//EN"
 "http://www.w3.org/TR/2001/REC-SVG-20010904/DTD/svg10.dtd">
<svg version="1.0" xmlns="http://www.w3.org/2000/svg"
 width="200.000000pt" height="200.000000pt" viewBox="0 0 200.000000 200.000000"
 preserveAspectRatio="xMidYMid meet">

<g transform="translate(0.000000,200.000000) scale(0.100000,-0.100000)"
fill="#000000" stroke="none">
<path d="M1670 1974 c-59 -33 -93 -66 -145 -139 -91 -128 -174 -328 -229 -552
-57 -235 -71 -349 -71 -613 0 -129 3 -247 7 -261 7 -24 1 -32 -65 -84 -105
-84 -183 -118 -277 -119 -73 -1 -79 1 -201 62 l-126 62 28 107 c15 60 39 178
53 263 15 87 32 158 39 163 6 4 51 31 100 60 180 108 277 207 352 362 158 327
54 705 -195 705 -95 0 -211 -101 -279 -244 -79 -164 -121 -345 -156 -661 -9
-77 -18 -150 -20 -161 -4 -17 -27 -29 -117 -59 -125 -41 -143 -52 -133 -84 9
-31 47 -36 131 -17 94 20 94 20 94 -5 0 -28 -46 -258 -67 -331 -15 -57 -16
-58 -52 -58 -53 0 -149 -27 -198 -56 -85 -49 -114 -135 -71 -208 29 -49 95
-86 154 -86 59 0 172 60 230 122 l45 49 93 -50 c147 -80 262 -99 391 -65 82
21 139 56 212 130 l62 64 12 -43 c17 -65 69 -156 105 -183 69 -53 156 -49 219
10 46 44 57 90 39 168 -17 70 -89 228 -152 330 l-41 66 37 7 c99 18 290 133
375 225 55 59 70 88 57 110 -10 16 -34 3 -220 -120 -143 -94 -236 -140 -280
-140 -11 0 -20 4 -20 8 0 5 5 57 11 116 l11 107 106 130 c142 173 272 356 323
452 47 90 99 234 99 275 0 36 -27 129 -46 158 -38 57 -148 71 -224 28z m-671
-150 c47 -59 76 -216 61 -323 -26 -187 -122 -330 -303 -453 -32 -22 -60 -38
-63 -36 -5 6 42 339 62 436 36 177 90 324 139 376 32 35 76 35 104 0z m775 20
c23 -9 21 -96 -5 -172 -26 -77 -100 -222 -164 -322 -68 -107 -168 -236 -172
-223 -7 20 48 243 88 360 78 227 154 344 236 363 1 0 8 -3 17 -6z m-340 -1435
c62 -145 84 -228 68 -264 -41 -89 -110 73 -127 300 -5 60 -4 87 3 80 5 -5 31
-58 56 -116z m-1134 -219 c-41 -58 -94 -77 -121 -44 -9 11 -10 20 -2 32 11 19
72 40 116 41 l28 1 -21 -30z"/>
</g>
</svg>
